{"title":"Bridge of Spies(2015)MPEG-4[DaScubaDude]","uid":14409274,"size":1410209308,"categoryP":"video","categoryS":"movies","magnet":"?xt=urn:btih:c8a06dbd6b2d9f419b8c7d9a6078ab738aca91e6&amp;dn=Bridge+of+Spies%282015%29MPEG-4%5BDaScubaDude%5D&amp;tr=udp%3A%2F%2Ftracker.leechers-paradise.org%3A6969&amp;tr=udp%3A%2F%2Fzer0day.ch%3A1337&amp;tr=udp%3A%2F%2Fopen.demonii.com%3A1337&amp;tr=udp%3A%2F%2Ftracker.coppersurfer.tk%3A6969&amp;tr=udp%3A%2F%2Fexodus.desync.com%3A6969","seeders":1,"leechers":0,"uploader":"dascuba","files":1,"time":1461447832,"description":"Bridge of Spies (2015)\r\nPG-13  |  142 min  |  Drama, History, Thriller  |  16 October 2015 (USA)\r\n7.6 Your rating:   -/10   Ratings: 7.6/10 from 152,686 users   Metascore: 81/100\r\nReviews: 329 user | 440 critic | 48 from Metacritic.com\r\nDuring the Cold War, an American lawyer is recruited to defend an arrested Soviet spy in court, and then help the CIA facilitate an exchange of the spy for the Soviet captured American U2 spy plane pilot, Francis Gary Powers.\r\n\r\nDirector: Steven Spielberg\r\nWriters: Matt Charman, Ethan Coen, \r\nStars: Tom Hanks, Mark Rylance, Alan Alda\r\n\r\nGeneral\r\nComplete name                            : BridgeofSpiesBRIDGE_OF_SPIES_Title1.mp4\r\nFormat                                   : MPEG-4\r\nFormat profile                           : Base Media\r\nCodec ID                                 : isom\r\nFile size                                : 1.31 GiB\r\nDuration                                 : 2h 21mn\r\nOverall bit rate                         : 1 332 Kbps\r\nMovie name                               : BRIDGE_OF_SPIES\r\nWriting application                      : Lavf54.6.100\r\n\r\nVideo\r\nID                                       : 1\r\nFormat                                   : AVC\r\nFormat/Info                              : Advanced Video Codec\r\nFormat profile                           :   \r\nFormat settings, CABAC                   : No\r\nFormat settings, ReFrames                : 6 frames\r\nCodec ID                                 : avc1\r\nCodec ID/Info                            : Advanced Video Coding\r\nDuration                                 : 2h 21mn\r\nBit rate                                 : 1 197 Kbps\r\nWidth                                    : 720 pixels\r\nHeight                                   : 404 pixels\r\nDisplay aspect ratio                     : 16:9\r\nFrame rate mode                          : Constant\r\nFrame rate                               : 29.970 fps\r\nColor space                              : YUV\r\nChroma subsampling                       : 4:2:0\r\nBit depth                                : 8 bits\r\nScan type                                : Progressive\r\nBits/(Pixel*Frame)                       : 0.137\r\nStream size                              : 1.18 GiB (90%)\r\n\r\nAudio\r\nID                                       : 2\r\nFormat                                   : AAC\r\nFormat/Info                              : Advanced Audio Codec\r\nFormat profile                           : LC\r\nCodec ID                                 : 40\r\nDuration                                 : 2h 21mn\r\nBit rate mode                            : Constant\r\nBit rate                                 : 128 Kbps\r\nChannel(s)                               : 2 channels\r\nChannel positions                        : Front: L R\r\nSampling rate                            : 44.1 KHz\r\nCompression mode                         : Lossy\r\nStream size                              : 129 MiB (10%)","torrent":{"xt":"urn:btih:c8a06dbd6b2d9f419b8c7d9a6078ab738aca91e6","amp;dn":"Bridge+of+Spies%282015%29MPEG-4%5BDaScubaDude%5D","amp;tr":["udp%3A%2F%2Ftracker.leechers-paradise.org%3A6969","udp%3A%2F%2Fzer0day.ch%3A1337","udp%3A%2F%2Fopen.demonii.com%3A1337","udp%3A%2F%2Ftracker.coppersurfer.tk%3A6969","udp%3A%2F%2Fexodus.desync.com%3A6969"],"infoHash":"c8a06dbd6b2d9f419b8c7d9a6078ab738aca91e6","infoHashBuffer":{"type":"Buffer","data":[200,160,109,189,107,45,159,65,155,140,125,154,96,120,171,115,138,202,145,230]},"announce":[],"urlList":[]}}